<?xml version="1.0" encoding="utf-8"?>
<!-- Generator: Adobe Illustrator 24.3.0, SVG Export Plug-In . SVG Version: 6.00 Build 0)  -->
<svg version="1.1" id="Layer_1" xmlns="http://www.w3.org/2000/svg" xmlns:xlink="http://www.w3.org/1999/xlink" x="0px" y="0px"
	 viewBox="0 0 400 400" style="enable-background:new 0 0 400 400;" xml:space="preserve">
<style type="text/css">
	.st0{fill:#049EDA;}
</style>
<g>
	<g>
		<rect x="232" y="46" width="22.7" height="63.4"/>
		<rect x="232" y="290.6" width="22.7" height="63.4"/>
		<rect x="10" y="46" width="244.6" height="22.7"/>
		<rect x="10" y="331.4" width="244.6" height="22.7"/>
		<rect x="10" y="46" width="22.7" height="308.1"/>
	</g>
	<g>
		<path class="st0" d="M237.3,272.1c30-27,58.4-65.7,58.4-100.1c0-30.3-20-44.4-44.3-44.4c-34,0-50.7,25.6-50.7,44.5
			c0,30.8,30.1,39.6,54.3,33.3l2.7-4.5c-21.4,1.3-36.3-12.7-36.3-34.1c0-21.9,11.1-32,24.8-32c12.8,0,26.5,13.1,26.5,42.4
			c0,41.7-29.6,77.5-45.6,95.1L237.3,272.1z"/>
		<path d="M159.3,164.4v102.3h-33.2V164.4H97.5v-31.1h90.4v31.1H159.3z"/>
		<path d="M317,133.3h33.3v88.6c0,4.5,1.2,8,3.5,10.3c2.3,2.3,5.8,3.4,10.4,3.4H390v31.1h-26.4c-15.8,0-27.5-3.7-35.1-11
			S317,237.3,317,222.1V133.3z"/>
	</g>
</g>
</svg>
